<?xml version="1.0" encoding="UTF-8"?>
<svg width="118" height="26" viewBox="0 0 118 26" fill="none" xmlns="http://www.w3.org/2000/svg">
    <path d="M38.4968 15.3464C38.4968 17.4257 37.2533 18.6194 34.8069 18.6194H28.9567V16.1562H34.114C34.8682 16.1562 35.2349 15.9057 35.2349 15.2705C35.2349 14.7508 34.8275 14.4233 33.9305 13.8264L30.8728 11.5933C29.3235 10.4767 28.6713 9.43689 28.6713 8.20424C28.6713 6.10484 29.9761 5.14331 32.5453 5.14331H38.2532V7.60771H33.1137C32.3199 7.60771 31.9315 7.85784 31.9315 8.51255C31.9315 9.01311 32.3392 9.34032 33.2566 9.91795L36.294 11.9202C37.8452 12.9204 38.4968 14.1333 38.4968 15.3464Z" fill="#292C6C"/>
    <path d="M50.747 7.60649H47.0778V18.6188H43.815V7.60649H40.147V5.14209H50.747V7.60649Z" fill="#292C6C"/>
    <path d="M60.1644 16.0197H54.4168L53.4369 18.6188H49.8899L55.5775 5.14209H59.0022L64.6894 18.6188H61.1425L60.1644 16.0197ZM59.307 13.7673L57.3109 8.43425L55.2926 13.7673H59.307Z" fill="#292C6C"/>
    <path d="M76.8988 18.6188H73.617L72.9851 16.0395C72.5777 14.2493 72.2106 13.7679 70.7836 13.7484H69.4791V18.6188H66.2173V5.14209H72.0677C75.1054 5.14209 76.4914 6.41283 76.4914 9.18494C76.4914 11.0525 75.7169 12.1886 74.147 12.6508C75.2679 13.151 75.8186 14.1521 76.2669 16.0398L76.8988 18.6188ZM70.9058 11.4955C72.6999 11.4955 73.2296 10.8987 73.2296 9.47376C73.2296 8.04886 72.6999 7.45233 70.9058 7.45233H69.4791V11.4955H70.9058Z" fill="#292C6C"/>
    <path d="M82.3016 18.6188H79.0382V5.14209H82.3016V18.6188ZM82.3016 11.6688L87.4995 5.14209H91.393L85.9312 11.6688L91.761 18.6188H87.8647L82.3016 11.6688Z" fill="#292C6C"/>
    <path d="M98.1368 17.6761H102.003C102.281 17.6826 102.558 17.6403 102.82 17.5514C103.03 17.4769 103.222 17.362 103.383 17.214C103.533 17.0719 103.652 16.904 103.735 16.7194C103.82 16.5285 103.88 16.3282 103.911 16.1232L104.048 15.3098H105.096L104.959 18.6188H94.2126V17.824H94.4666C94.678 17.8247 94.8891 17.8108 95.0982 17.7823C95.2831 17.7593 95.4611 17.7011 95.6215 17.6113C95.7775 17.5189 95.9016 17.3856 95.9788 17.2278C96.0756 17.0165 96.1207 16.7874 96.1109 16.5574V7.25859C96.1207 7.01554 96.0775 6.77317 95.9839 6.54659C95.9099 6.38082 95.7877 6.23825 95.6314 6.13541C95.4735 6.03716 95.2948 5.97258 95.1077 5.94616C94.8958 5.91396 94.6813 5.89811 94.4666 5.89878H94.2126V5.104H104.312L104.411 8.41326H103.373L103.275 7.59959C103.25 7.39577 103.199 7.19557 103.123 7.00336C103.051 6.82007 102.942 6.65201 102.801 6.5088C102.652 6.36203 102.472 6.24699 102.272 6.1714C102.027 6.0827 101.766 6.04031 101.504 6.04664H98.1378V11.0852H102.973V12.0095H98.1368V17.6761Z" fill="#F6643C"/>
    <path d="M113.87 9.8189C113.89 9.61996 113.762 9.43416 113.562 9.37083C113.314 9.29376 113.054 9.25774 112.794 9.26436H112.735V8.46959H117.119V9.26436H116.943C116.764 9.26282 116.586 9.2783 116.41 9.31055C116.244 9.34374 116.085 9.40316 115.94 9.4863C115.765 9.58917 115.606 9.71352 115.465 9.85609C115.27 10.0523 115.087 10.2591 114.917 10.4754L112.853 13.0727L115.798 16.8156C116.024 17.1223 116.307 17.3867 116.635 17.5954C116.864 17.7363 117.13 17.8147 117.403 17.8218H117.668V18.6166H112.492V17.8218H112.59C113.392 17.8218 113.793 17.6119 113.794 17.192C113.793 17.1218 113.783 17.052 113.764 16.9842C113.737 16.8965 113.697 16.8125 113.647 16.7343C113.588 16.639 113.509 16.5235 113.412 16.3879C113.314 16.2524 113.187 16.0859 113.031 15.8886L111.69 14.1878L110.291 16.0364C110.232 16.1104 110.17 16.1968 110.105 16.2956C110.04 16.3938 109.981 16.4956 109.929 16.6006C109.877 16.7034 109.835 16.81 109.802 16.9194C109.77 17.0199 109.754 17.1241 109.753 17.2289C109.739 17.4221 109.851 17.6038 110.037 17.6866C110.343 17.7946 110.67 17.8403 110.996 17.8206H111.054V18.6154H106.276V17.8206H106.462C106.675 17.823 106.888 17.8044 107.097 17.7651C107.28 17.7278 107.455 17.6623 107.615 17.5711C107.795 17.4662 107.959 17.3403 108.105 17.1965C108.295 17.0101 108.475 16.8141 108.643 16.6096L111.168 13.5225L108.643 10.2685C108.396 9.98189 108.107 9.7295 107.786 9.51869C107.531 9.35294 107.229 9.26282 106.919 9.25986H106.657V8.46509H111.746V9.25986H111.688C111.497 9.25684 111.307 9.27079 111.12 9.30155C110.996 9.32007 110.876 9.36078 110.768 9.42152C110.692 9.46433 110.631 9.52679 110.592 9.60146C110.559 9.66811 110.542 9.74068 110.543 9.8141C110.545 9.95025 110.587 10.0831 110.665 10.1977C110.746 10.3243 110.863 10.486 111.014 10.683L112.335 12.3838L113.373 10.9697C113.51 10.7754 113.631 10.5714 113.735 10.3593C113.82 10.1902 113.866 10.006 113.87 9.8189Z" fill="#F6643C"/>
    <g filter="url(#filter0_d)">
        <path d="M2.36437 12.2832L9.398 8.43558C9.61262 8.31578 9.85715 8.25211 10.1064 8.25113C10.1735 8.25093 10.2405 8.25555 10.3068 8.26493C10.476 8.28674 10.6397 8.3367 10.7904 8.41249L11.8406 8.98022L18.0244 12.3432C18.2059 12.46 18.3564 12.6148 18.4642 12.7954C18.5002 12.8562 18.5312 12.9195 18.557 12.9847L18.5386 2.65982C18.538 2.48417 18.4635 2.31594 18.3315 2.19218C18.1995 2.06843 18.0209 1.99929 17.8349 2.00001L2.40723 2.0228C2.02119 2.02706 1.71017 2.32308 1.70863 2.68772L1.72642 12.9241C1.75055 12.8737 1.77758 12.8245 1.80739 12.7768C1.94242 12.5678 2.1349 12.3972 2.36437 12.2832Z" fill="#272950"/>
        <path d="M1.73152 15.3095C1.75435 15.2623 1.77968 15.2163 1.80741 15.1715C1.94244 14.9625 2.13492 14.7919 2.36439 14.6779L9.39803 10.8303C9.61264 10.7105 9.85717 10.6468 10.1065 10.6458C10.1735 10.6456 10.2405 10.6502 10.3068 10.6596C10.476 10.6814 10.6398 10.7314 10.7905 10.8072L11.8406 11.3749L18.0245 14.7378C18.2059 14.8547 18.3564 15.0094 18.4643 15.1901C18.5029 15.2553 18.5356 15.3234 18.5621 15.3938L18.5579 13.7019V12.9845C18.5322 12.9193 18.5012 12.8561 18.4652 12.7953C18.3574 12.6146 18.2069 12.4599 18.0254 12.343L11.8406 8.98008L10.7905 8.41234C10.6398 8.33655 10.476 8.2866 10.3068 8.26478C10.2405 8.2554 10.1735 8.25079 10.1065 8.25098C9.85717 8.25197 9.61264 8.31563 9.39803 8.43544L2.36439 12.283C2.13492 12.397 1.94244 12.5676 1.80741 12.7767C1.77761 12.8244 1.75058 12.8735 1.72644 12.924V13.6929L1.73152 15.3095Z" fill="#272950"/>
        <path opacity="0.4" d="M1.73152 15.3095C1.75435 15.2623 1.77968 15.2163 1.80741 15.1715C1.94244 14.9625 2.13492 14.7919 2.36439 14.6779L9.39803 10.8303C9.61264 10.7105 9.85717 10.6468 10.1065 10.6458C10.1735 10.6456 10.2405 10.6502 10.3068 10.6596C10.476 10.6814 10.6398 10.7314 10.7905 10.8072L11.8406 11.3749L18.0245 14.7378C18.2059 14.8547 18.3564 15.0094 18.4643 15.1901C18.5029 15.2553 18.5356 15.3234 18.5621 15.3938L18.5579 13.7019V12.9845C18.5322 12.9193 18.5012 12.8561 18.4652 12.7953C18.3574 12.6146 18.2069 12.4599 18.0254 12.343L11.8406 8.98008L10.7905 8.41234C10.6398 8.33655 10.476 8.2866 10.3068 8.26478C10.2405 8.2554 10.1735 8.25079 10.1065 8.25098C9.85717 8.25197 9.61264 8.31563 9.39803 8.43544L2.36439 12.283C2.13492 12.397 1.94244 12.5676 1.80741 12.7767C1.77761 12.8244 1.75058 12.8735 1.72644 12.924V13.6929L1.73152 15.3095Z" fill="#F6643C"/>
        <path d="M2.46563 17.1122L9.40782 13.3146C9.61944 13.1965 9.86057 13.1336 10.1064 13.1326C10.1725 13.1324 10.2386 13.137 10.3039 13.1464C10.4706 13.1679 10.6318 13.2172 10.7802 13.2919L11.8167 13.8521L17.9219 17.1715C18.1009 17.2866 18.2494 17.4393 18.3556 17.6175C18.4512 17.776 18.5104 17.9516 18.5296 18.1331C18.554 18.0374 18.5668 17.9394 18.5677 17.841L18.562 15.394C18.5355 15.3236 18.5028 15.2555 18.4642 15.1903C18.3564 15.0096 18.2059 14.8549 18.0244 14.738L11.8405 11.3751L10.7904 10.8074C10.6397 10.7316 10.476 10.6816 10.3068 10.6598C10.2405 10.6504 10.1735 10.6458 10.1064 10.646C9.85712 10.647 9.61259 10.7107 9.39797 10.8305L2.36434 14.6781C2.13487 14.7921 1.94239 14.9627 1.80736 15.1717C1.77962 15.2165 1.75429 15.2625 1.73147 15.3097L1.7375 17.8686C1.7375 17.9129 1.74226 17.9564 1.74671 17.9996C1.78043 17.8587 1.83756 17.7236 1.91596 17.5995C2.04921 17.3932 2.23916 17.2247 2.46563 17.1122Z" fill="#272950"/>
        <path opacity="0.4" d="M2.46563 17.1122L9.40782 13.3146C9.61944 13.1965 9.86057 13.1336 10.1064 13.1326C10.1725 13.1324 10.2386 13.137 10.3039 13.1464C10.4706 13.1679 10.6318 13.2172 10.7802 13.2919L11.8167 13.8521L17.9219 17.1715C18.1009 17.2866 18.2494 17.4393 18.3556 17.6175C18.4512 17.776 18.5104 17.9516 18.5296 18.1331C18.554 18.0374 18.5668 17.9394 18.5677 17.841L18.562 15.394C18.5355 15.3236 18.5028 15.2555 18.4642 15.1903C18.3564 15.0096 18.2059 14.8549 18.0244 14.738L11.8405 11.3751L10.7904 10.8074C10.6397 10.7316 10.476 10.6816 10.3068 10.6598C10.2405 10.6504 10.1735 10.6458 10.1064 10.646C9.85712 10.647 9.61259 10.7107 9.39797 10.8305L2.36434 14.6781C2.13487 14.7921 1.94239 14.9627 1.80736 15.1717C1.77962 15.2165 1.75429 15.2625 1.73147 15.3097L1.7375 17.8686C1.7375 17.9129 1.74226 17.9564 1.74671 17.9996C1.78043 17.8587 1.83756 17.7236 1.91596 17.5995C2.04921 17.3932 2.23916 17.2247 2.46563 17.1122Z" fill="#F6643C"/>
        <path opacity="0.6" d="M2.46563 17.1122L9.40782 13.3146C9.61944 13.1965 9.86057 13.1336 10.1064 13.1326C10.1725 13.1324 10.2386 13.137 10.3039 13.1464C10.4706 13.1679 10.6318 13.2172 10.7802 13.2919L11.8167 13.8521L17.9219 17.1715C18.1009 17.2866 18.2494 17.4393 18.3556 17.6175C18.4512 17.776 18.5104 17.9516 18.5296 18.1331C18.554 18.0374 18.5668 17.9394 18.5677 17.841L18.562 15.394C18.5355 15.3236 18.5028 15.2555 18.4642 15.1903C18.3564 15.0096 18.2059 14.8549 18.0244 14.738L11.8405 11.3751L10.7904 10.8074C10.6397 10.7316 10.476 10.6816 10.3068 10.6598C10.2405 10.6504 10.1735 10.6458 10.1064 10.646C9.85712 10.647 9.61259 10.7107 9.39797 10.8305L2.36434 14.6781C2.13487 14.7921 1.94239 14.9627 1.80736 15.1717C1.77962 15.2165 1.75429 15.2625 1.73147 15.3097L1.7375 17.8686C1.7375 17.9129 1.74226 17.9564 1.74671 17.9996C1.78043 17.8587 1.83756 17.7236 1.91596 17.5995C2.04921 17.3932 2.23916 17.2247 2.46563 17.1122Z" fill="#F6643C"/>
        <path d="M2.35454 18.9611L8.45808 22.2806L9.49455 22.8408C9.643 22.9155 9.80426 22.9647 9.97087 22.9863C10.0362 22.9956 10.1023 23.0003 10.1684 23.0001C10.4142 22.999 10.6554 22.9362 10.867 22.818L17.8108 19.0205C18.0373 18.908 18.2273 18.7396 18.3604 18.5331C18.4388 18.409 18.496 18.274 18.5297 18.1331C18.5105 17.9516 18.4512 17.776 18.3557 17.6175C18.2494 17.4393 18.1009 17.2866 17.9219 17.1715L11.8184 13.8521L10.7819 13.2918C10.6335 13.2172 10.4722 13.1679 10.3056 13.1464C10.2402 13.137 10.1742 13.1324 10.1081 13.1326C9.8622 13.1336 9.62108 13.1965 9.40945 13.3146L2.46568 17.1121C2.23921 17.2247 2.04926 17.3931 1.91601 17.5995C1.8376 17.7236 1.78048 17.8586 1.74676 17.9996C1.76595 18.181 1.82523 18.3567 1.92077 18.5151C2.02704 18.6934 2.17549 18.846 2.35454 18.9611Z" fill="#F6643C"/>
    </g>
    <defs>
        <filter id="filter0_d" x="0.123086" y="0.414452" width="21.0872" height="25.2282" filterUnits="userSpaceOnUse" color-interpolation-filters="sRGB">
            <feFlood flood-opacity="0" result="BackgroundImageFix"/>
            <feColorMatrix in="SourceAlpha" type="matrix" values="0 0 0 0 0 0 0 0 0 0 0 0 0 0 0 0 0 0 127 0" result="hardAlpha"/>
            <feOffset dx="0.528516" dy="0.528516"/>
            <feGaussianBlur stdDeviation="1.05703"/>
            <feColorMatrix type="matrix" values="0 0 0 0 0 0 0 0 0 0 0 0 0 0 0 0 0 0 0.5 0"/>
            <feBlend mode="normal" in2="BackgroundImageFix" result="effect1_dropShadow"/>
            <feBlend mode="normal" in="SourceGraphic" in2="effect1_dropShadow" result="shape"/>
        </filter>
    </defs>
</svg>

